<svg width="41" height="21" viewBox="0 0 41 21" fill="none" xmlns="http://www.w3.org/2000/svg">
<path d="M8.29585 6.43378L2.97764 3.50574C2.69666 3.97462 2.54154 4.57923 2.54154 5.20549C2.54154 5.83175 2.69666 6.43636 2.97764 6.90524C3.9797 8.68771 0.939924 7.03344 1.21423 8.50573C1.48854 9.97803 3.60463 10.0277 2.61376 10.921C1.62289 11.8143 -0.37843 11.2435 0.867151 12.265C2.11273 13.2865 4.31839 12.4594 3.43389 13.9193C2.54938 15.3792 1.37378 15.2138 2.17711 16.1277C2.98044 17.0417 3.9741 16.3759 3.9741 16.3759L2.03995 18.0674L9.59741 15.3378" fill="#F4AC4D"/>
<path d="M14.1345 16.4878C14.1345 16.4878 11.0304 20.9295 9.26696 20.9212C7.50356 20.9129 1.76549 20.9212 1.76549 20.9212L1.76549 19.0643C1.76549 19.0643 7.6715 15.2595 9.60285 12.836C11.5342 10.4125 14.1345 16.4878 14.1345 16.4878Z" fill="#68E1FD"/>
<path opacity="0.61" d="M14.1345 16.4878C14.1345 16.4878 11.0304 20.9295 9.26696 20.9212C7.50356 20.9129 1.76549 20.9212 1.76549 20.9212L1.76549 19.0643C1.76549 19.0643 7.6715 15.2595 9.60285 12.836C11.5342 10.4125 14.1345 16.4878 14.1345 16.4878Z" fill="#363636"/>
<path d="M14.1345 5.35444C14.1345 5.35444 11.0304 0.92102 9.26696 0.92102C7.50356 0.92102 1.76549 0.92102 1.76549 0.92102L1.76549 2.77793C1.76549 2.77793 7.6715 6.58273 9.60285 9.00622C11.5342 11.4297 14.1345 5.35444 14.1345 5.35444Z" fill="#68E1FD"/>
<path opacity="0.61" d="M14.1345 5.35444C14.1345 5.35444 11.0304 0.92102 9.26696 0.92102C7.50356 0.92102 1.76549 0.92102 1.76549 0.92102L1.76549 2.77793C1.76549 2.77793 7.6715 6.58273 9.60285 9.00622C11.5342 11.4297 14.1345 5.35444 14.1345 5.35444Z" fill="#363636"/>
<path d="M34.8728 15.2758C36.8477 14.2015 38.7274 12.7781 40.4709 11.0368C40.4709 11.0368 38.4696 8.84901 34.8308 6.83081C33.9156 9.33701 34.2095 12.476 34.8728 15.2758Z" fill="#68E1FD"/>
<path d="M19.576 10.921C19.576 13.413 20.7791 15.433 22.2631 15.433C23.7471 15.433 24.9502 13.413 24.9502 10.921C24.9502 8.42914 23.7471 6.40906 22.2631 6.40906C20.7791 6.40906 19.576 8.42914 19.576 10.921Z" fill="#68E1FD"/>
<path d="M40.468 11.041C40.468 11.041 28.2389 -2.34199 9.29491 6.56207C9.29491 6.56207 5.25027 7.57116 5.33424 10.7432C5.41821 13.9152 9.81273 16.3677 9.81273 16.3677C9.81273 16.3677 27.959 23.6671 40.468 11.041Z" fill="#68E1FD"/>
<path opacity="0.61" d="M34.8728 15.2758C36.8477 14.2015 38.7274 12.7781 40.4709 11.0368C40.4709 11.0368 38.4696 8.84901 34.8308 6.83081C33.9156 9.33701 34.2095 12.476 34.8728 15.2758Z" fill="#363636"/>
<path opacity="0.61" d="M23.752 11.0536C23.752 12.4343 24.8712 13.5536 26.252 13.5536C27.6327 13.5536 28.752 12.4343 28.752 11.0536C28.752 9.67287 27.6327 8.55359 26.252 8.55359C24.8712 8.55359 23.752 9.67287 23.752 11.0536Z" fill="#363636"/>
<path opacity="0.61" d="M18.0759 11.0536C18.0759 11.882 18.7475 12.5536 19.5759 12.5536C20.4044 12.5536 21.0759 11.882 21.0759 11.0536C21.0759 10.2252 20.4044 9.55359 19.5759 9.55359C18.7475 9.55359 18.0759 10.2252 18.0759 11.0536Z" fill="#363636"/>
<path d="M9.29517 6.56198C9.29517 6.56198 7.15669 3.50161 5.9363 3.50574C4.71591 3.50988 0.769234 3.50574 0.769234 3.50574L0.769234 4.78779C0.769234 4.78779 4.83906 7.40979 6.17701 9.08059C7.51496 10.7514 9.29517 6.56198 9.29517 6.56198Z" fill="#68E1FD"/>
<path d="M9.29517 15.2799C9.29517 15.2799 7.15669 18.3403 5.9363 18.3362C4.71591 18.332 0.769235 18.3362 0.769235 18.3362L0.769235 17.05C0.769235 17.05 4.83906 14.428 6.17701 12.7572C7.51496 11.0864 9.29517 15.2799 9.29517 15.2799Z" fill="#68E1FD"/>
<path opacity="0.29" d="M9.29517 6.56198C9.29517 6.56198 7.15669 3.50161 5.9363 3.50574C4.71591 3.50988 0.769234 3.50574 0.769234 3.50574L0.769234 4.78779C0.769234 4.78779 4.83906 7.40979 6.17701 9.08059C7.51496 10.7514 9.29517 6.56198 9.29517 6.56198Z" fill="#363636"/>
<path opacity="0.29" d="M9.29517 15.2799C9.29517 15.2799 7.15669 18.3403 5.9363 18.3362C4.71591 18.332 0.769235 18.3362 0.769235 18.3362L0.769235 17.05C0.769235 17.05 4.83906 14.428 6.17701 12.7572C7.51496 11.0864 9.29517 15.2799 9.29517 15.2799Z" fill="#363636"/>
</svg>
