<svg width="51" height="21" fill="none" xmlns="http://www.w3.org/2000/svg">
  <path d="m.7 10.2 16.9-2.5v5l-17-2.5Z" fill="#FFD200" />
  <path d="M24.1 15.8s-3 4.4-4.9 4.4h-7.5v-1.8s6-3.8 7.9-6.3c2-2.4 4.5 3.7 4.5 3.7Z" fill="#68E1FD" />
  <path opacity=".6" d="M24.1 15.8s-3 4.4-4.9 4.4h-7.5v-1.8s6-3.8 7.9-6.3c2-2.4 4.5 3.7 4.5 3.7Z" fill="#363636" />
  <path d="M24.1 4.7S21.1.2 19.2.2h-7.5v1.9s6 3.8 7.9 6.2c2 2.4 4.5-3.6 4.5-3.6Z" fill="#68E1FD" />
  <path opacity=".6" d="M24.1 4.7S21.1.2 19.2.2h-7.5v1.9s6 3.8 7.9 6.2c2 2.4 4.5-3.6 4.5-3.6Z" fill="#363636" />
  <path
    d="M45 14.6c2-1.1 4-2.5 5.7-4.3 0 0-2-2.2-5.7-4.2-1 2.5-.6 5.7 0 8.5Zm-15.4-4.4c0 2.5 1.2 4.5 2.7 4.5 1.5 0 2.7-2 2.7-4.5s-1.2-4.5-2.7-4.5c-1.5 0-2.7 2-2.7 4.5Z"
    fill="#68E1FD" />
  <path d="M50.7 10.3S38.3-3 19.3 6c0 0-4.1 1-4 4.1 0 3.2 4.5 5.7 4.5 5.7S38 23 50.7 10.3Z" fill="#68E1FD" />
  <path opacity=".6"
    d="M45 14.6c2-1.1 4-2.5 5.7-4.3 0 0-2-2.2-5.7-4.2-1 2.5-.6 5.7 0 8.5Zm-11.2-4.2c0 1.3 1.2 2.5 2.5 2.5 1.4 0 2.6-1.2 2.6-2.5 0-1.4-1.2-2.5-2.6-2.5a2.5 2.5 0 0 0-2.5 2.5Zm-5.7 0c0 .8.7 1.5 1.5 1.5.9 0 1.5-.7 1.5-1.5 0-.9-.6-1.5-1.5-1.5-.8 0-1.5.6-1.5 1.5Z"
    fill="#363636" />
  <path
    d="M19.3 5.9s-2.2-3.1-3.4-3h-5.2V4s4 2.6 5.4 4.3c1.4 1.7 3.2-2.5 3.2-2.5Zm0 8.7s-2.2 3-3.4 3h-5.2v-1.3s4-2.6 5.4-4.2c1.4-1.7 3.2 2.5 3.2 2.5Z"
    fill="#68E1FD" />
  <path opacity=".3"
    d="M19.3 5.9s-2.2-3.1-3.4-3h-5.2V4s4 2.6 5.4 4.3c1.4 1.7 3.2-2.5 3.2-2.5Zm0 8.7s-2.2 3-3.4 3h-5.2v-1.3s4-2.6 5.4-4.2c1.4-1.7 3.2 2.5 3.2 2.5Z"
    fill="#363636" />
</svg>